<svg width="48" height="47" viewBox="0 0 48 47" fill="none" xmlns="http://www.w3.org/2000/svg">
<path d="M42.0001 8.12208H35.7721C35.8298 7.16476 35.7119 6.20494 35.4241 5.29008C35.0168 3.99804 34.2695 2.83939 33.2602 1.93572C32.251 1.03204 31.0171 0.416645 29.6881 0.154082C28.5772 -0.0738084 27.4294 -0.0516324 26.3281 0.219004C25.2266 0.48964 24.1993 1.00195 23.3204 1.7188C22.4417 2.43565 21.7334 3.33907 21.247 4.36357C20.7605 5.38807 20.5081 6.50797 20.5081 7.64208C20.5081 7.79808 20.5081 7.96608 20.5081 8.12208H14.2921C12.9405 8.12526 11.6451 8.66359 10.6894 9.61933C9.73364 10.5751 9.19529 11.8705 9.19212 13.2221V18.778C8.14061 18.6945 7.08318 18.8295 6.08639 19.1746C5.08959 19.5196 4.175 20.0673 3.40014 20.7831C2.6253 21.4987 2.00697 22.3671 1.58408 23.3335C1.16119 24.2998 0.942871 25.3433 0.942871 26.398C0.942871 27.4528 1.16119 28.4964 1.58408 29.4627C2.00697 30.429 2.6253 31.2973 3.40014 32.0131C4.175 32.7288 5.08959 33.2765 6.08639 33.6216C7.08318 33.9666 8.14061 34.1016 9.19212 34.0181V40.93C9.19529 42.2817 9.73364 43.5771 10.6894 44.5329C11.6451 45.4885 12.9405 46.0269 14.2921 46.03H42.0001C43.3517 46.0269 44.6471 45.4885 45.6028 44.5329C46.5586 43.5771 47.0969 42.2817 47.1001 40.93V13.2221C47.0969 11.8705 46.5586 10.5751 45.6028 9.61933C44.6471 8.66359 43.3517 8.12526 42.0001 8.12208ZM44.1001 40.93C44.0969 41.4861 43.8746 42.0184 43.4815 42.4116C43.0885 42.8046 42.5561 43.0269 42.0001 43.03H14.2921C13.7361 43.0269 13.2038 42.8046 12.8107 42.4116C12.4175 42.0184 12.1953 41.4861 12.1921 40.93V32.146C12.1857 31.9093 12.1237 31.6773 12.0111 31.4689C11.8985 31.2604 11.7386 31.0813 11.5441 30.946C11.2922 30.7764 10.9959 30.6846 10.6921 30.682C10.5121 30.6858 10.3339 30.7182 10.1641 30.778C9.38334 31.0704 8.53827 31.1472 7.71761 31.0002C6.89694 30.8533 6.13095 30.4883 5.50004 29.9433C4.86912 29.3983 4.39655 28.6935 4.13193 27.9029C3.86732 27.1124 3.8204 26.265 3.99612 25.4501C4.13505 24.7969 4.4132 24.1815 4.81161 23.6455C5.21001 23.1096 5.71929 22.666 6.30473 22.3447C6.89018 22.0236 7.538 21.8323 8.20403 21.7843C8.87004 21.7362 9.53861 21.8323 10.1641 22.066C10.3921 22.1488 10.6366 22.1755 10.8771 22.144C11.1176 22.1124 11.3469 22.0234 11.5457 21.8845C11.7446 21.7458 11.9071 21.5611 12.0196 21.3462C12.1321 21.1314 12.1913 20.8926 12.1921 20.65V13.2221C12.1921 12.6651 12.4134 12.131 12.8072 11.7372C13.201 11.3433 13.7352 11.1221 14.2921 11.1221H22.3321C22.5707 11.124 22.8064 11.0684 23.0191 10.9601C23.2318 10.8517 23.4154 10.6939 23.5541 10.4997C23.693 10.3056 23.7832 10.0809 23.8169 9.84457C23.8507 9.60828 23.827 9.36735 23.7481 9.14208C23.5915 8.65738 23.5105 8.15145 23.5081 7.64208C23.5069 6.96712 23.6527 6.29998 23.9354 5.68714C24.2183 5.07429 24.6313 4.53046 25.1458 4.09351C25.6603 3.65658 26.2637 3.33702 26.9143 3.15712C27.5648 2.97721 28.2467 2.94127 28.9126 3.05181C29.5784 3.16234 30.2122 3.41668 30.7697 3.79713C31.3273 4.17759 31.7951 4.67499 32.1409 5.25472C32.4865 5.83444 32.7017 6.48255 32.7713 7.15392C32.8409 7.82527 32.7634 8.50374 32.5441 9.14208C32.4652 9.36735 32.4416 9.60828 32.4754 9.84457C32.5091 10.0809 32.5993 10.3056 32.738 10.4997C32.8769 10.6939 33.0604 10.8517 33.2731 10.9601C33.4858 11.0684 33.7214 11.124 33.9601 11.1221H42.0001C42.557 11.1221 43.0912 11.3433 43.4851 11.7372C43.8788 12.131 44.1001 12.6651 44.1001 13.2221V40.93Z" fill="#1D1C1D"/>
<path d="M35.9998 24.8622H29.9998V19.4502C29.9998 19.0524 29.8417 18.6708 29.5604 18.3895C29.2792 18.1083 28.8976 17.9502 28.4998 17.9502C28.102 17.9502 27.7204 18.1083 27.4391 18.3895C27.1579 18.6708 26.9998 19.0524 26.9998 19.4502V24.8622H21.5998C21.2267 24.8956 20.8796 25.0675 20.6267 25.344C20.374 25.6204 20.2339 25.9815 20.2339 26.3562C20.2339 26.7307 20.374 27.0919 20.6267 27.3684C20.8796 27.6448 21.2267 27.8167 21.5998 27.8502H27.0118V33.8502C27.0452 34.2232 27.2171 34.5703 27.4936 34.8232C27.77 35.076 28.1312 35.2161 28.5058 35.2161C28.8803 35.2161 29.2415 35.076 29.518 34.8232C29.7944 34.5703 29.9663 34.2232 29.9998 33.8502V27.8502H35.9998C36.3976 27.8502 36.7792 27.6921 37.0604 27.4108C37.3417 27.1296 37.4998 26.748 37.4998 26.3502C37.4998 25.9524 37.3417 25.5708 37.0604 25.2895C36.7792 25.0083 36.3976 24.8502 35.9998 24.8502V24.8622Z" fill="#1D1C1D"/>
</svg>
