<svg width="40" height="40" viewBox="0 0 40 40" fill="none" xmlns="http://www.w3.org/2000/svg">
<path fill-rule="evenodd" clip-rule="evenodd" d="M7.186 0.0500488C8.1091 0.0500488 8.8574 0.798369 8.8574 1.72148V5.06434H12.2C13.1231 5.06434 13.8714 5.81266 13.8714 6.73576C13.8714 7.65886 13.1231 8.40716 12.2 8.40716H8.8574V11.7501C8.8574 12.6732 8.1091 13.4215 7.186 13.4215C6.2629 13.4215 5.51456 12.6732 5.51456 11.7501V8.40716H2.17143C1.24832 8.40716 0.5 7.65886 0.5 6.73576C0.5 5.81266 1.24832 5.06434 2.17143 5.06434H5.51456V1.72148C5.51456 0.798369 6.2629 0.0500488 7.186 0.0500488ZM18.886 1.16434C17.9629 1.16434 17.2146 1.91266 17.2146 2.83577C17.2146 3.75887 17.9629 4.5072 18.886 4.5072H31.1431C33.9124 4.5072 36.1574 6.75216 36.1574 9.52146V21.7787H25.5714C23.7252 21.7787 22.2286 23.2753 22.2286 25.1215V35.7072H9.9717C7.2024 35.7072 4.95742 33.4623 4.95742 30.693V18.4358C4.95742 17.5127 4.20909 16.7644 3.28599 16.7644C2.36288 16.7644 1.61456 17.5127 1.61456 18.4358V30.693C1.61456 35.3085 5.35618 39.0501 9.9717 39.0501H22.7536C24.379 39.0501 25.9378 38.4044 27.0871 37.2551L37.7053 26.637C38.8546 25.4876 39.5003 23.9288 39.5003 22.3034V9.52146C39.5003 4.90596 35.7587 1.16434 31.1431 1.16434H18.886ZM25.5714 34.0433L34.4932 25.1215H25.5714V34.0433Z" fill="#1D1C1D"/>
</svg>
