<svg width="40" height="48" viewBox="0 0 40 48" fill="none" xmlns="http://www.w3.org/2000/svg">
<path d="M31.8002 16.0699H18.1802C17.7824 16.0699 17.4008 16.228 17.1195 16.5092C16.8383 16.7906 16.6802 17.1721 16.6802 17.5699C16.6802 17.9677 16.8383 18.3493 17.1195 18.6305C17.4008 18.9119 17.7824 19.0699 18.1802 19.0699H31.8002C32.198 19.0699 32.5796 18.9119 32.8608 18.6305C33.1422 18.3493 33.3002 17.9677 33.3002 17.5699C33.3002 17.1721 33.1422 16.7906 32.8608 16.5092C32.5796 16.228 32.198 16.0699 31.8002 16.0699Z" fill="#1D1C1D"/>
<path d="M31.8002 21.722H18.1802C17.7824 21.722 17.4008 21.8801 17.1195 22.1614C16.8383 22.4426 16.6802 22.8242 16.6802 23.222C16.6802 23.6198 16.8383 24.0014 17.1195 24.2827C17.4008 24.5639 17.7824 24.722 18.1802 24.722H31.8002C32.198 24.722 32.5796 24.5639 32.8608 24.2827C33.1422 24.0014 33.3002 23.6198 33.3002 23.222C33.3002 22.8242 33.1422 22.4426 32.8608 22.1614C32.5796 21.8801 32.198 21.722 31.8002 21.722Z" fill="#1D1C1D"/>
<path d="M31.7999 27.6499H25.4399C25.042 27.6499 24.6605 27.808 24.3793 28.0893C24.0979 28.3705 23.9399 28.7521 23.9399 29.1499C23.9399 29.5477 24.0979 29.9293 24.3793 30.2106C24.6605 30.4918 25.042 30.6499 25.4399 30.6499H31.7999C32.1977 30.6499 32.5792 30.4918 32.8606 30.2106C33.1418 29.9293 33.2999 29.5477 33.2999 29.1499C33.2999 28.7521 33.1418 28.3705 32.8606 28.0893C32.5792 27.808 32.1977 27.6499 31.7999 27.6499Z" fill="#1D1C1D"/>
<path d="M29.3996 0.950195H15.1556C13.9771 0.953372 12.8477 1.42382 12.0154 2.25839C11.1831 3.09296 10.7157 4.22353 10.7157 5.4022V28.5742L5.65166 30.1582C5.06003 30.3413 4.53386 30.6914 4.13637 31.1663C3.73889 31.6412 3.48699 32.2208 3.41096 32.8355C3.33492 33.4501 3.43797 34.0737 3.70773 34.6312C3.97749 35.1886 4.40249 35.6564 4.93166 35.9782L5.14766 36.1102L1.79966 39.0142C1.46789 39.304 1.19946 39.6592 1.01114 40.0574C0.822811 40.4557 0.718636 40.8884 0.705121 41.3288C0.691606 41.7691 0.769051 42.2076 0.932596 42.6166C1.09614 43.0257 1.34229 43.3966 1.65566 43.7062L4.45166 46.5142C4.76385 46.8237 5.13594 47.066 5.54513 47.2265C5.95431 47.3871 6.39198 47.4623 6.83129 47.4478C7.27059 47.4331 7.70229 47.329 8.09991 47.1416C8.49753 46.9543 8.85272 46.6876 9.14366 46.3582L12.0476 43.0462L12.1796 43.2622C12.5047 43.7869 12.9731 44.2073 13.5298 44.4739C14.0864 44.7404 14.7077 44.8418 15.3203 44.7661C15.9328 44.6903 16.5106 44.4406 16.9855 44.0464C17.4604 43.6522 17.8124 43.1302 17.9996 42.5422L19.3916 38.0782H34.9916C35.5774 38.083 36.1582 37.9721 36.7009 37.7519C37.2436 37.5319 37.7377 37.2068 38.1545 36.7955C38.5714 36.3841 38.903 35.8946 39.1304 35.3549C39.3578 34.8151 39.4765 34.2358 39.4796 33.6502V11.2462L29.3996 0.950195ZM30.2636 6.1222L34.4156 10.3582H30.2516L30.2636 6.1222ZM15.1676 41.6542C15.1544 41.6974 15.1271 41.7351 15.0902 41.761C15.0533 41.7871 15.0088 41.8001 14.9636 41.7982C14.9276 41.8007 14.8918 41.7931 14.8598 41.7761C14.828 41.759 14.8016 41.7336 14.7836 41.7022L12.6716 38.2462C12.6518 38.2166 12.6251 38.1923 12.5938 38.1755C12.5623 38.1589 12.5273 38.1502 12.4916 38.1502C12.4619 38.1493 12.4322 38.1553 12.4052 38.1677C12.3781 38.1802 12.3542 38.1989 12.3356 38.2222L6.92366 44.3782C6.90503 44.4014 6.88124 44.42 6.85416 44.4326C6.82709 44.4451 6.79746 44.4511 6.76766 44.4502C6.71331 44.4694 6.654 44.4694 6.59966 44.4502L3.80366 41.5822C3.764 41.5399 3.74193 41.4841 3.74193 41.4262C3.74193 41.3683 3.764 41.3125 3.80366 41.2702L9.95966 35.8702C9.98694 35.8501 10.0091 35.8238 10.0244 35.7937C10.0397 35.7634 10.0477 35.7301 10.0477 35.6962C10.0477 35.6623 10.0397 35.629 10.0244 35.5987C10.0091 35.5684 9.98694 35.5423 9.95966 35.5222L6.50366 33.4102C6.46412 33.396 6.42992 33.37 6.40574 33.3355C6.38157 33.3011 6.3686 33.2602 6.3686 33.2182C6.3686 33.1762 6.38157 33.1353 6.40574 33.1007C6.42992 33.0664 6.46412 33.0405 6.50366 33.0262L18.6596 29.2222H18.7196C18.7538 29.2199 18.7879 29.2264 18.8188 29.2406C18.8498 29.255 18.8767 29.2771 18.8971 29.3046C18.9173 29.332 18.9304 29.3641 18.935 29.398C18.9397 29.4317 18.9358 29.4662 18.9236 29.4982L15.1676 41.6542ZM35.0276 35.0782H20.3636L21.8396 30.3862C21.9904 29.9044 22.0255 29.3941 21.9424 28.8962C21.8591 28.3984 21.6599 27.9271 21.3608 27.5205C21.0617 27.1139 20.6711 26.7835 20.2207 26.5558C19.7702 26.3282 19.2724 26.2097 18.7676 26.2102C18.4423 26.21 18.1187 26.2586 17.8076 26.3542L13.7156 27.6502V5.4022C13.7156 5.01917 13.867 4.65166 14.1367 4.37969C14.4064 4.10773 14.7727 3.95336 15.1556 3.9502H27.2516V10.6702C27.2548 11.3842 27.5407 12.0679 28.0468 12.5716C28.5527 13.0754 29.2376 13.3582 29.9516 13.3582H36.4796V33.6502C36.4733 34.0311 36.3176 34.3943 36.046 34.6615C35.7743 34.9285 35.4086 35.0782 35.0276 35.0782Z" fill="#1D1C1D"/>
</svg>
