<svg width="38" height="38" viewBox="0 0 38 38" fill="none" xmlns="http://www.w3.org/2000/svg">
<path fill-rule="evenodd" clip-rule="evenodd" d="M7.859 7.85105C4.89262 10.6925 3.10083 14.3722 3.10083 17.8501V21.8082C4.75757 20.282 6.97 19.35 9.4001 19.35H9.7501C12.0421 19.35 13.9001 21.208 13.9001 23.5V33.8C13.9001 36.092 12.0421 37.95 9.7501 37.95H9.4001C4.26385 37.95 0.100098 33.7862 0.100098 28.65C0.100098 28.6106 0.100338 28.5713 0.100828 28.532V17.8501C0.100828 13.3751 2.36985 8.95485 5.7838 5.68455C9.2085 2.40413 13.9171 0.150146 19.0008 0.150146C24.0845 0.150146 28.7932 2.40413 32.2178 5.68455C35.6318 8.95485 37.9008 13.3751 37.9008 17.8501V28.6066L37.9009 28.65C37.9009 33.7862 33.7372 37.95 28.6009 37.95H28.2509C25.959 37.95 24.1009 36.092 24.1009 33.8V23.5C24.1009 21.208 25.959 19.35 28.2509 19.35H28.6009C31.0313 19.35 33.244 20.2823 34.9008 21.8088V17.8501C34.9008 14.3722 33.109 10.6925 30.1426 7.85105C27.1869 5.01972 23.1955 3.15015 19.0008 3.15015C14.8062 3.15015 10.8148 5.01972 7.859 7.85105ZM3.1001 28.6501C3.10016 32.1294 5.9207 34.95 9.4001 34.95H9.7501C10.3852 34.95 10.9001 34.4351 10.9001 33.8V23.5C10.9001 22.8649 10.3852 22.35 9.7501 22.35H9.4001C5.9531 22.35 3.15273 25.1183 3.10083 28.5529L3.1001 28.6501ZM34.9008 28.6501V28.6143C34.8816 25.1513 32.0684 22.35 28.6009 22.35H28.2509C27.6158 22.35 27.1009 22.8649 27.1009 23.5V33.8C27.1009 34.4351 27.6158 34.95 28.2509 34.95H28.6009C32.0803 34.95 34.9008 32.1294 34.9008 28.6501Z" fill="#1D1C1D"/>
</svg>
