<svg width="43" height="48" viewBox="0 0 43 48" fill="none" xmlns="http://www.w3.org/2000/svg">
<path d="M37.6959 7.2499C35.8926 5.17657 33.6652 3.51443 31.1644 2.37583C28.6636 1.23721 25.9476 0.64865 23.1999 0.649904C22.3531 0.6521 21.5074 0.708214 20.6679 0.817904C17.4055 1.23616 14.3052 2.48548 11.6644 4.44608C9.02356 6.40667 6.93065 9.01282 5.58635 12.0146C4.24205 15.0164 3.69142 18.3133 3.98725 21.589C4.28308 24.8647 5.41546 28.0094 7.27582 30.7219L1.51582 38.1259C0.849786 38.9789 0.437016 40.0022 0.324651 41.0786C0.212286 42.155 0.404841 43.2415 0.880341 44.2138C1.35583 45.1859 2.09512 46.005 3.01379 46.5772C3.93245 47.1494 4.99351 47.4518 6.07582 47.4499C6.95003 47.4511 7.81297 47.2528 8.599 46.8701C9.38503 46.4875 10.0734 45.9307 10.6118 45.2419L16.3599 37.9219C19.4955 39.111 22.8858 39.4664 26.1999 38.9539C29.6122 38.4353 32.8216 37.0066 35.4906 34.8179C38.1594 32.6293 40.1889 29.7616 41.3655 26.5168C42.5421 23.272 42.8223 19.7699 42.1764 16.3793C41.5306 12.9888 39.9828 9.83503 37.6959 7.2499ZM39.3519 22.1059C38.8888 25.5841 37.3156 28.82 34.866 31.3324C32.4163 33.8446 29.2212 35.4992 25.7559 36.0499C24.918 36.1782 24.0715 36.2423 23.2239 36.2419C20.8605 36.2467 18.525 35.7304 16.3839 34.7299C16.203 34.6465 16.0069 34.6017 15.8079 34.5979C15.6163 34.5977 15.4273 34.6409 15.255 34.724C15.0825 34.8071 14.931 34.928 14.8119 35.0779L8.25982 43.4779C7.99082 43.792 7.65524 44.042 7.27745 44.2102C6.89968 44.3783 6.48919 44.4602 6.07582 44.4499C5.55686 44.4494 5.04847 44.3033 4.60846 44.0282C4.16846 43.753 3.81454 43.3598 3.58697 42.8935C3.35939 42.4271 3.26732 41.9062 3.32122 41.39C3.37511 40.8739 3.57281 40.3832 3.89182 39.9739L10.4558 31.5739C10.631 31.3471 10.726 31.0685 10.726 30.7819C10.726 30.4952 10.631 30.2167 10.4558 29.9899C8.80255 27.8782 7.69727 25.3903 7.23848 22.7479C6.77969 20.1055 6.98162 17.3908 7.82629 14.8453C8.67095 12.2999 10.1321 10.0029 12.0796 8.15902C14.0271 6.31513 16.4005 4.98158 18.9882 4.2772C21.576 3.57281 24.2977 3.51946 26.9112 4.12187C29.5245 4.72429 31.9483 5.96378 33.9666 7.72993C35.9848 9.49607 37.5349 11.734 38.4787 14.2444C39.4225 16.7548 39.7306 19.4596 39.3759 22.1179L39.3519 22.1059Z" fill="#1D1C1D"/>
<path d="M23.2 8.8219C20.4134 8.8273 17.7304 9.87836 15.6815 11.7672C13.6328 13.656 12.3675 16.2449 12.136 19.0219H10.336C10.2353 19.0204 10.1364 19.0492 10.0522 19.1044C9.96796 19.1597 9.90223 19.2389 9.86347 19.3319C9.82473 19.4249 9.81474 19.5275 9.83481 19.6263C9.85486 19.7249 9.90406 19.8154 9.97603 19.8859L13.168 23.0899C13.2644 23.1838 13.3936 23.2363 13.528 23.2363C13.6625 23.2363 13.7917 23.1838 13.888 23.0899L17.092 19.8859C17.164 19.8154 17.2132 19.7249 17.2333 19.6263C17.2534 19.5275 17.2433 19.4249 17.2046 19.3319C17.1658 19.2389 17.1001 19.1597 17.0159 19.1044C16.9316 19.0492 16.8328 19.0204 16.732 19.0219H15.088C15.3058 17.1356 16.18 15.3862 17.5579 14.0799C18.9358 12.7735 20.7292 11.9935 22.6243 11.8765C24.5194 11.7595 26.3953 12.313 27.9233 13.4399C29.4514 14.5669 30.5342 16.1956 30.9823 18.0406C31.4303 19.8857 31.2149 21.8296 30.3739 23.5318C29.5328 25.2341 28.1197 26.5862 26.3821 27.3514C24.6443 28.1165 22.6928 28.2458 20.8693 27.7169C19.0457 27.1879 17.4665 26.0342 16.408 24.4579C16.1861 24.1294 15.8432 23.902 15.4543 23.8255C15.0652 23.7491 14.6618 23.8297 14.332 24.0499C14.0027 24.274 13.775 24.619 13.6987 25.01C13.6223 25.4009 13.7033 25.8062 13.924 26.1379C14.9936 27.7273 16.456 29.0131 18.1691 29.8705C19.8823 30.7281 21.788 31.1279 23.7014 31.0316C25.6147 30.9353 27.4706 30.346 29.089 29.3209C30.7073 28.2958 32.0332 26.8696 32.9378 25.1809C33.8425 23.4922 34.2952 21.5983 34.252 19.683C34.2088 17.7677 33.671 15.8962 32.6911 14.25C31.7113 12.6038 30.3224 11.2389 28.6594 10.2878C26.9965 9.33676 25.1158 8.83177 23.2 8.8219Z" fill="#1D1C1D"/>
</svg>
