<svg width="32" height="48" viewBox="0 0 32 48" fill="none" xmlns="http://www.w3.org/2000/svg">
<path d="M7.38015 47.1C6.91845 47.0979 6.46425 46.9813 6.05835 46.7608C5.65257 46.5405 5.30766 46.2229 5.05451 45.8367C4.80134 45.4503 4.64781 45.0074 4.60763 44.5473C4.56744 44.0872 4.64186 43.6243 4.82423 43.2L11.1362 28.8H4.20023C3.51326 28.8042 2.8364 28.6346 2.23277 28.3065C1.62914 27.9785 1.1184 27.5029 0.748187 26.9242C0.377972 26.3457 0.160338 25.6825 0.115578 24.997C0.0708179 24.3116 0.200402 23.6259 0.492227 23.004L9.62415 3.27597C9.9492 2.56403 10.4709 1.95983 11.1278 1.53461C11.7848 1.10937 12.5496 0.880852 13.3322 0.875977H22.9322C23.4036 0.876886 23.8671 0.996962 24.2796 1.22504C24.6923 1.45312 25.0404 1.78181 25.2918 2.18054C25.5434 2.57927 25.6899 3.03509 25.718 3.50565C25.7459 3.9762 25.6545 4.44621 25.4522 4.87197L19.0802 18.192H27.0002C27.8049 18.1891 28.5924 18.4244 29.2638 18.8679C29.9352 19.3116 30.4604 19.9438 30.7734 20.6852C31.0863 21.4266 31.173 22.2438 31.0227 23.0345C30.8723 23.825 30.4916 24.5534 29.9282 25.128L9.38415 46.248C9.1242 46.5168 8.8128 46.7307 8.46855 46.8771C8.1243 47.0235 7.75425 47.0993 7.38015 47.1ZM13.4042 25.824C13.6542 25.8253 13.8759 25.8525 14.0954 25.972C14.315 26.0916 14.5014 26.2636 14.6382 26.4729C14.7749 26.6821 14.8575 26.922 14.8788 27.171C14.9003 27.4202 14.8595 27.6705 14.7602 27.9L8.02815 43.332L27.7443 23.04C27.9003 22.8873 28.0059 22.6903 28.0467 22.4758C28.0875 22.2612 28.0616 22.0394 27.9722 21.84C27.8901 21.6413 27.75 21.472 27.5702 21.3543C27.3903 21.2366 27.1791 21.1758 26.9642 21.18H16.7042C16.4508 21.1798 16.2017 21.1159 15.9794 20.9944C15.7571 20.8728 15.569 20.6973 15.4322 20.484C15.3014 20.267 15.2253 20.0214 15.2106 19.7683C15.1961 19.5153 15.2433 19.2626 15.3483 19.032L22.5483 3.88797H13.3322C13.1244 3.88808 12.921 3.94814 12.7466 4.06095C12.572 4.17375 12.4337 4.33454 12.3482 4.52397L3.24023 24.288C3.16421 24.451 3.13017 24.6306 3.14118 24.8103C3.15221 24.9898 3.20793 25.164 3.30332 25.3166C3.3987 25.4691 3.53072 25.5956 3.68735 25.6842C3.84399 25.7727 4.02029 25.8208 4.20023 25.824H13.4042Z" fill="#1D1C1D"/>
</svg>
