<svg width="32" height="48" viewBox="0 0 32 48" fill="none" xmlns="http://www.w3.org/2000/svg">
<path d="M7.38015 47.15C6.91845 47.1479 6.46425 47.0314 6.05835 46.8109C5.65257 46.5905 5.30766 46.273 5.05451 45.8867C4.80134 45.5004 4.64781 45.0574 4.60763 44.5974C4.56744 44.1373 4.64186 43.6744 4.82423 43.25L11.1362 28.85H4.20023C3.51326 28.8542 2.8364 28.6846 2.23277 28.3565C1.62914 28.0285 1.1184 27.553 0.748187 26.9743C0.377972 26.3957 0.160338 25.7326 0.115578 25.0471C0.0708179 24.3616 0.200402 23.6759 0.492227 23.0541L9.62415 3.32602C9.9492 2.61407 10.4709 2.00987 11.1278 1.58465C11.7848 1.15942 12.5496 0.9309 13.3322 0.926025H22.9322C23.4036 0.926934 23.8671 1.04701 24.2796 1.27509C24.6923 1.50317 25.0404 1.83185 25.2918 2.23058C25.5434 2.62931 25.6899 3.08513 25.718 3.5557C25.7459 4.02625 25.6545 4.49626 25.4522 4.92202L19.0802 18.2421H27.0002C27.8049 18.2392 28.5924 18.4744 29.2638 18.9179C29.9352 19.3616 30.4604 19.9939 30.7734 20.7352C31.0863 21.4766 31.173 22.2938 31.0227 23.0845C30.8723 23.875 30.4916 24.6034 29.9282 25.1781L9.38415 46.298C9.1242 46.5668 8.8128 46.7808 8.46855 46.9271C8.1243 47.0735 7.75425 47.1493 7.38015 47.15ZM13.4042 25.874C13.6542 25.8754 13.8759 25.9025 14.0954 26.0221C14.315 26.1416 14.5014 26.3137 14.6382 26.5229C14.7749 26.7322 14.8575 26.972 14.8788 27.2211C14.9003 27.4702 14.8595 27.7205 14.7602 27.9501L8.02815 43.382L27.7443 23.09C27.9003 22.9373 28.0059 22.7404 28.0467 22.5259C28.0875 22.3112 28.0616 22.0894 27.9722 21.89C27.8901 21.6913 27.75 21.5221 27.5702 21.4044C27.3903 21.2866 27.1791 21.2258 26.9642 21.23H16.7042C16.4508 21.2299 16.2017 21.166 15.9794 21.0445C15.7571 20.9228 15.569 20.7473 15.4322 20.534C15.3014 20.317 15.2253 20.0714 15.2106 19.8184C15.1961 19.5653 15.2433 19.3126 15.3483 19.082L22.5483 3.93802H13.3322C13.1244 3.93812 12.921 3.99818 12.7466 4.111C12.572 4.2238 12.4337 4.38458 12.3482 4.57402L3.24023 24.338C3.16421 24.5011 3.13017 24.6806 3.14118 24.8603C3.15221 25.0399 3.20793 25.2141 3.30332 25.3666C3.3987 25.5191 3.53072 25.6456 3.68735 25.7342C3.84399 25.8228 4.02029 25.8709 4.20023 25.874H13.4042Z" fill="#1D1C1D"/>
</svg>
