<svg width="33" height="32" viewBox="0 0 33 32" fill="none" xmlns="http://www.w3.org/2000/svg">
<rect x="0.0993652" width="32" height="32" rx="4" fill="#FFF8E3"/>
<path d="M13.0994 21V22C13.0994 22.7956 13.4154 23.5587 13.978 24.1213C14.5407 24.6839 15.3037 25 16.0994 25C16.895 25 17.6581 24.6839 18.2207 24.1213C18.7833 23.5587 19.0994 22.7956 19.0994 22V21M14.0994 9C14.0994 8.46957 14.3101 7.96086 14.6852 7.58579C15.0602 7.21071 15.5689 7 16.0994 7C16.6298 7 17.1385 7.21071 17.5136 7.58579C17.8887 7.96086 18.0994 8.46957 18.0994 9C19.2478 9.54303 20.2268 10.3883 20.9314 11.4453C21.6361 12.5023 22.0398 13.7311 22.0994 15V18C22.1746 18.6217 22.3948 19.2171 22.7422 19.7381C23.0896 20.2592 23.5544 20.6914 24.0994 21H8.09937C8.6443 20.6914 9.10917 20.2592 9.45655 19.7381C9.80393 19.2171 10.0241 18.6217 10.0994 18V15C10.1589 13.7311 10.5627 12.5023 11.2673 11.4453C11.972 10.3883 12.951 9.54303 14.0994 9Z" stroke="#FFBF35" stroke-width="2" stroke-linecap="round" stroke-linejoin="round"/>
</svg>
