<svg width="16" height="16" viewBox="0 0 16 16" fill="none" xmlns="http://www.w3.org/2000/svg">
<path d="M10.999 9.66667H10.3407L10.1073 9.44167C10.9522 8.46169 11.4166 7.21058 11.4157 5.91667C11.4157 4.84535 11.098 3.7981 10.5028 2.90733C9.90761 2.01656 9.06164 1.3223 8.07187 0.912322C7.08211 0.502347 5.993 0.395079 4.94227 0.604082C3.89154 0.813085 2.92638 1.32897 2.16884 2.08651C1.41131 2.84404 0.895422 3.8092 0.686419 4.85993C0.477415 5.91066 0.584683 6.99977 0.994658 7.98954C1.40463 8.9793 2.0989 9.82527 2.98967 10.4205C3.88043 11.0157 4.92769 11.3333 5.99901 11.3333C7.34067 11.3333 8.57401 10.8417 9.524 10.025L9.74901 10.2583V10.9167L13.9157 15.075L15.1573 13.8333L10.999 9.66667ZM5.99901 9.66667C3.92401 9.66667 2.24901 7.99167 2.24901 5.91667C2.24901 3.84167 3.92401 2.16667 5.99901 2.16667C8.07401 2.16667 9.74901 3.84167 9.74901 5.91667C9.74901 7.99167 8.07401 9.66667 5.99901 9.66667Z" fill="#687685"/>
</svg>
