<svg width="16" height="16" viewBox="0 0 16 16" fill="none" xmlns="http://www.w3.org/2000/svg">
<path fill-rule="evenodd" clip-rule="evenodd" d="M11.4327 10.5C12.521 10.5 13.4477 11.1958 13.791 12.1667H14.766C14.987 12.1667 15.199 12.2545 15.3553 12.4107C15.5116 12.567 15.5994 12.779 15.5994 13C15.5994 13.221 15.5116 13.433 15.3553 13.5893C15.199 13.7455 14.987 13.8333 14.766 13.8333H13.791C13.6189 14.3213 13.2996 14.7438 12.8772 15.0427C12.4548 15.3415 11.9501 15.502 11.4327 15.502C10.9153 15.502 10.4106 15.3415 9.9882 15.0427C9.56581 14.7438 9.24653 14.3213 9.07436 13.8333H1.4327C1.21168 13.8333 0.999723 13.7455 0.843443 13.5893C0.687163 13.433 0.599365 13.221 0.599365 13C0.599365 12.779 0.687163 12.567 0.843443 12.4107C0.999723 12.2545 1.21168 12.1667 1.4327 12.1667H9.07436C9.24687 11.6791 9.5663 11.257 9.98866 10.9585C10.411 10.66 10.9155 10.4999 11.4327 10.5ZM11.4327 12.1667C11.2117 12.1667 10.9997 12.2545 10.8434 12.4107C10.6872 12.567 10.5994 12.779 10.5994 13C10.5994 13.221 10.6872 13.433 10.8434 13.5893C10.9997 13.7455 11.2117 13.8333 11.4327 13.8333C11.6537 13.8333 11.8657 13.7455 12.022 13.5893C12.1782 13.433 12.266 13.221 12.266 13C12.266 12.779 12.1782 12.567 12.022 12.4107C11.8657 12.2545 11.6537 12.1667 11.4327 12.1667ZM4.76603 5.5C5.25686 5.49993 5.73684 5.64435 6.14614 5.91524C6.55544 6.18613 6.87595 6.57151 7.0677 7.02333L7.12353 7.16667H14.766C14.9784 7.1669 15.1827 7.24823 15.3372 7.39404C15.4916 7.53985 15.5846 7.73913 15.597 7.95116C15.6095 8.1632 15.5405 8.37198 15.4041 8.53486C15.2678 8.69774 15.0744 8.80241 14.8635 8.8275L14.766 8.83333H7.12436C6.95636 9.30857 6.64868 9.72195 6.24164 10.0193C5.83461 10.3166 5.34723 10.484 4.84341 10.4995C4.33959 10.515 3.84284 10.3779 3.41831 10.1061C2.99377 9.83437 2.66126 9.44068 2.46437 8.97667L2.4077 8.83333H1.4327C1.2203 8.8331 1.01601 8.75177 0.861558 8.60596C0.707112 8.46015 0.614169 8.26087 0.601722 8.04884C0.589274 7.8368 0.658261 7.62802 0.794586 7.46514C0.930911 7.30226 1.12429 7.19759 1.3352 7.1725L1.4327 7.16667H2.4077C2.58021 6.6791 2.89963 6.25702 3.32199 5.95853C3.74434 5.66005 4.24885 5.49985 4.76603 5.5ZM4.76603 7.16667C4.54502 7.16667 4.33306 7.25446 4.17678 7.41074C4.0205 7.56702 3.9327 7.77899 3.9327 8C3.9327 8.22101 4.0205 8.43297 4.17678 8.58926C4.33306 8.74554 4.54502 8.83333 4.76603 8.83333C4.98705 8.83333 5.19901 8.74554 5.35529 8.58926C5.51157 8.43297 5.59937 8.22101 5.59937 8C5.59937 7.77899 5.51157 7.56702 5.35529 7.41074C5.19901 7.25446 4.98705 7.16667 4.76603 7.16667ZM11.4327 0.5C12.521 0.5 13.4477 1.19583 13.791 2.16667H14.766C14.987 2.16667 15.199 2.25446 15.3553 2.41074C15.5116 2.56702 15.5994 2.77899 15.5994 3C15.5994 3.22101 15.5116 3.43298 15.3553 3.58926C15.199 3.74554 14.987 3.83333 14.766 3.83333H13.791C13.6189 4.32128 13.2996 4.74381 12.8772 5.04268C12.4548 5.34155 11.9501 5.50204 11.4327 5.50204C10.9153 5.50204 10.4106 5.34155 9.9882 5.04268C9.56581 4.74381 9.24653 4.32128 9.07436 3.83333H1.4327C1.21168 3.83333 0.999723 3.74554 0.843443 3.58926C0.687163 3.43298 0.599365 3.22101 0.599365 3C0.599365 2.77899 0.687163 2.56702 0.843443 2.41074C0.999723 2.25446 1.21168 2.16667 1.4327 2.16667H9.07436C9.24687 1.6791 9.5663 1.25702 9.98866 0.958533C10.411 0.660049 10.9155 0.499851 11.4327 0.5ZM11.4327 2.16667C11.2117 2.16667 10.9997 2.25446 10.8434 2.41074C10.6872 2.56702 10.5994 2.77899 10.5994 3C10.5994 3.22101 10.6872 3.43298 10.8434 3.58926C10.9997 3.74554 11.2117 3.83333 11.4327 3.83333C11.6537 3.83333 11.8657 3.74554 12.022 3.58926C12.1782 3.43298 12.266 3.22101 12.266 3C12.266 2.77899 12.1782 2.56702 12.022 2.41074C11.8657 2.25446 11.6537 2.16667 11.4327 2.16667Z" fill="white"/>
</svg>
