<svg width="33" height="32" viewBox="0 0 33 32" fill="none" xmlns="http://www.w3.org/2000/svg">
<rect x="0.0993652" width="32" height="32" rx="4" fill="#E1F3FC"/>
<path d="M15.9994 26L20.5494 14H22.6494L27.1994 26H25.0994L24.0494 22.95H19.1994L18.0994 26H15.9994ZM19.7994 21.2H23.3994L21.6494 16.25H21.5494L19.7994 21.2ZM8.09937 23L6.69937 21.6L11.7494 16.55C11.116 15.85 10.5617 15.125 10.0864 14.375C9.61103 13.625 9.1987 12.8333 8.84937 12H10.9494C11.2494 12.6 11.5704 13.1417 11.9124 13.625C12.2544 14.1083 12.6667 14.6167 13.1494 15.15C13.8827 14.35 14.491 13.529 14.9744 12.687C15.4577 11.845 15.866 10.9493 16.1994 10H5.09937V8H12.0994V6H14.0994V8H21.0994V10H18.1994C17.8494 11.1833 17.3744 12.3333 16.7744 13.45C16.1744 14.5667 15.4327 15.6167 14.5494 16.6L16.9494 19.05L16.1994 21.1L13.0994 18L8.09937 23Z" fill="#008DDD"/>
</svg>
