<svg width="9" height="9" viewBox="0 0 9 9" fill="none" xmlns="http://www.w3.org/2000/svg">
<path d="M0.592054 7.11921C0.366751 7.34452 0.366751 7.7098 0.592054 7.93511C0.817356 8.16041 1.18264 8.16041 1.40795 7.93511L0.592054 7.11921ZM8.10406 1.00002C8.10406 0.681395 7.84577 0.423098 7.52714 0.423097L2.33483 0.423098C2.01621 0.423097 1.75791 0.681395 1.75791 1.00002C1.75791 1.31865 2.01621 1.57694 2.33483 1.57694H6.95022V6.19233C6.95022 6.51095 7.20851 6.76925 7.52714 6.76925C7.84577 6.76925 8.10406 6.51095 8.10406 6.19233L8.10406 1.00002ZM1.40795 7.93511L7.93509 1.40797L7.11919 0.592074L0.592054 7.11921L1.40795 7.93511Z" fill="#6A4BB4"/>
</svg>
