<svg width="28" height="16" viewBox="0 0 28 16" fill="none" xmlns="http://www.w3.org/2000/svg">
<path d="M14 3.625C13.1347 3.625 12.2888 3.88159 11.5694 4.36232C10.8499 4.84305 10.2892 5.52633 9.95803 6.32576C9.62689 7.12519 9.54025 8.00485 9.70906 8.85352C9.87787 9.70219 10.2946 10.4817 10.9064 11.0936C11.5183 11.7054 12.2978 12.1221 13.1465 12.2909C13.9951 12.4597 14.8748 12.3731 15.6742 12.042C16.4737 11.7108 17.1569 11.1501 17.6377 10.4306C18.1184 9.71115 18.375 8.86529 18.375 8C18.375 6.83968 17.9141 5.72688 17.0936 4.90641C16.2731 4.08594 15.1603 3.625 14 3.625ZM14 10.625C13.4808 10.625 12.9733 10.471 12.5416 10.1826C12.1099 9.89417 11.7735 9.4842 11.5748 9.00454C11.3761 8.52489 11.3242 7.99709 11.4254 7.48789C11.5267 6.97869 11.7767 6.51096 12.1438 6.14384C12.511 5.77673 12.9787 5.52672 13.4879 5.42544C13.9971 5.32415 14.5249 5.37614 15.0045 5.57482C15.4842 5.7735 15.8942 6.10995 16.1826 6.54163C16.471 6.97331 16.625 7.48082 16.625 8C16.625 8.69619 16.3484 9.36387 15.8562 9.85616C15.3639 10.3484 14.6962 10.625 14 10.625ZM26.25 0.125H1.75C1.51794 0.125 1.29538 0.217187 1.13128 0.381282C0.967187 0.545376 0.875 0.767936 0.875 1V15C0.875 15.2321 0.967187 15.4546 1.13128 15.6187C1.29538 15.7828 1.51794 15.875 1.75 15.875H26.25C26.4821 15.875 26.7046 15.7828 26.8687 15.6187C27.0328 15.4546 27.125 15.2321 27.125 15V1C27.125 0.767936 27.0328 0.545376 26.8687 0.381282C26.7046 0.217187 26.4821 0.125 26.25 0.125ZM21.1805 14.125H6.81953C6.52576 13.1314 5.98807 12.2272 5.25545 11.4945C4.52283 10.7619 3.61856 10.2242 2.625 9.93047V6.06953C3.61856 5.77576 4.52283 5.23807 5.25545 4.50545C5.98807 3.77283 6.52576 2.86856 6.81953 1.875H21.1805C21.4742 2.86856 22.0119 3.77283 22.7445 4.50545C23.4772 5.23807 24.3814 5.77576 25.375 6.06953V9.93047C24.3814 10.2242 23.4772 10.7619 22.7445 11.4945C22.0119 12.2272 21.4742 13.1314 21.1805 14.125ZM25.375 4.21234C24.3255 3.76105 23.4889 2.92452 23.0377 1.875H25.375V4.21234ZM4.96234 1.875C4.51105 2.92452 3.67452 3.76105 2.625 4.21234V1.875H4.96234ZM2.625 11.7877C3.67452 12.2389 4.51105 13.0755 4.96234 14.125H2.625V11.7877ZM23.0377 14.125C23.4889 13.0755 24.3255 12.2389 25.375 11.7877V14.125H23.0377Z" fill="white"/>
</svg>
