<svg width="45" height="44" viewBox="0 0 45 44" fill="none" xmlns="http://www.w3.org/2000/svg">
<rect x="0.666748" width="44" height="44" rx="8" fill="#FFF8E3"/>
<path d="M12.1667 18.5V30.1667C12.1667 30.7855 12.4126 31.379 12.8502 31.8166C13.2878 32.2542 13.8812 32.5 14.5001 32.5H30.8334C31.4523 32.5 32.0457 32.2542 32.4833 31.8166C32.9209 31.379 33.1667 30.7855 33.1667 30.1667V18.5" stroke="#FFBF35" stroke-width="1.75"/>
<path d="M32.566 11.5H27.9087L28.492 17.3333C28.492 17.3333 29.6587 18.5 31.4087 18.5C32.3273 18.5012 33.2148 18.1668 33.9042 17.5597C33.9771 17.4916 34.0314 17.406 34.062 17.3111C34.0926 17.2162 34.0985 17.115 34.0792 17.0172L33.2555 12.0833C33.228 11.9203 33.1436 11.7724 33.0174 11.6656C32.8912 11.5588 32.7313 11.5002 32.566 11.5Z" stroke="#FFBF35" stroke-width="1.75"/>
<path d="M27.9087 11.5L28.492 17.3333C28.492 17.3333 27.3254 18.5 25.5754 18.5C23.8254 18.5 22.6587 17.3333 22.6587 17.3333V11.5H27.9087Z" stroke="#FFBF35" stroke-width="1.75"/>
<path d="M22.6587 11.5V17.3333C22.6587 17.3333 21.492 18.5 19.742 18.5C17.992 18.5 16.8253 17.3333 16.8253 17.3333L17.4087 11.5H22.6587Z" stroke="#FFBF35" stroke-width="1.75"/>
<path d="M17.4086 11.5H12.7525C12.5868 11.4999 12.4265 11.5586 12.3 11.6657C12.1735 11.7727 12.0891 11.9211 12.0618 12.0845L11.2393 17.0183C11.2201 17.1162 11.2261 17.2173 11.2567 17.3122C11.2873 17.4071 11.3415 17.4927 11.4143 17.5608C11.797 17.8992 12.6521 18.5012 13.9086 18.5012C15.6586 18.5012 16.8253 17.3345 16.8253 17.3345L17.4086 11.5Z" stroke="#FFBF35" stroke-width="1.75"/>
</svg>
